<mxfile host="app.diagrams.net" agent="Mozilla/5.0 (Macintosh; Intel Mac OS X 10_15_7) AppleWebKit/537.36 (KHTML, like Gecko) Chrome/128.0.0.0 Safari/537.36" version="24.7.14">
  <diagram name="Page-1" id="juw4tSzDTNCyB4LWfVka">
    <mxGraphModel grid="1" page="1" gridSize="10" guides="1" tooltips="1" connect="1" arrows="1" fold="1" pageScale="1" pageWidth="850" pageHeight="1100" math="0" shadow="0">
      <root>
        <mxCell id="0" />
        <mxCell id="1" parent="0" />
        <mxCell id="CugEwf6VZo9OiKDZDvfF-2" value="App.js" style="whiteSpace=wrap;strokeWidth=2;" vertex="1" parent="1">
          <mxGeometry x="1553" y="90" width="105" height="49" as="geometry" />
        </mxCell>
        <mxCell id="CugEwf6VZo9OiKDZDvfF-3" value="Header.js" style="whiteSpace=wrap;strokeWidth=2;" vertex="1" parent="1">
          <mxGeometry x="191" y="189" width="128" height="49" as="geometry" />
        </mxCell>
        <mxCell id="CugEwf6VZo9OiKDZDvfF-4" value="Main.js" style="whiteSpace=wrap;strokeWidth=2;" vertex="1" parent="1">
          <mxGeometry x="1550" y="189" width="111" height="49" as="geometry" />
        </mxCell>
        <mxCell id="CugEwf6VZo9OiKDZDvfF-5" value="Footer.js" style="whiteSpace=wrap;strokeWidth=2;" vertex="1" parent="1">
          <mxGeometry x="2387" y="189" width="123" height="49" as="geometry" />
        </mxCell>
        <mxCell id="CugEwf6VZo9OiKDZDvfF-6" value="Logo.js" style="whiteSpace=wrap;strokeWidth=2;" vertex="1" parent="1">
          <mxGeometry x="20" y="287" width="112" height="49" as="geometry" />
        </mxCell>
        <mxCell id="CugEwf6VZo9OiKDZDvfF-7" value="SearchBar.js" style="whiteSpace=wrap;strokeWidth=2;" vertex="1" parent="1">
          <mxGeometry x="182" y="287" width="147" height="49" as="geometry" />
        </mxCell>
        <mxCell id="CugEwf6VZo9OiKDZDvfF-8" value="NavMenu.js" style="whiteSpace=wrap;strokeWidth=2;" vertex="1" parent="1">
          <mxGeometry x="379" y="287" width="142" height="49" as="geometry" />
        </mxCell>
        <mxCell id="CugEwf6VZo9OiKDZDvfF-9" value="HomePage.js" style="whiteSpace=wrap;strokeWidth=2;" vertex="1" parent="1">
          <mxGeometry x="571" y="287" width="153" height="49" as="geometry" />
        </mxCell>
        <mxCell id="CugEwf6VZo9OiKDZDvfF-10" value="SearchResults.js" style="whiteSpace=wrap;strokeWidth=2;" vertex="1" parent="1">
          <mxGeometry x="965" y="287" width="176" height="49" as="geometry" />
        </mxCell>
        <mxCell id="CugEwf6VZo9OiKDZDvfF-11" value="RouteView.js" style="whiteSpace=wrap;strokeWidth=2;" vertex="1" parent="1">
          <mxGeometry x="1410" y="287" width="152" height="49" as="geometry" />
        </mxCell>
        <mxCell id="CugEwf6VZo9OiKDZDvfF-12" value="AdminPanel.js" style="whiteSpace=wrap;strokeWidth=2;" vertex="1" parent="1">
          <mxGeometry x="1755" y="287" width="162" height="49" as="geometry" />
        </mxCell>
        <mxCell id="CugEwf6VZo9OiKDZDvfF-13" value="UserProfile.js" style="whiteSpace=wrap;strokeWidth=2;" vertex="1" parent="1">
          <mxGeometry x="1967" y="287" width="157" height="49" as="geometry" />
        </mxCell>
        <mxCell id="CugEwf6VZo9OiKDZDvfF-14" value="HelpPage.js" style="whiteSpace=wrap;strokeWidth=2;" vertex="1" parent="1">
          <mxGeometry x="2174" y="287" width="144" height="49" as="geometry" />
        </mxCell>
        <mxCell id="CugEwf6VZo9OiKDZDvfF-15" value="Map.js" style="whiteSpace=wrap;strokeWidth=2;" vertex="1" parent="1">
          <mxGeometry x="502" y="386" width="107" height="49" as="geometry" />
        </mxCell>
        <mxCell id="CugEwf6VZo9OiKDZDvfF-16" value="Instructions.js" style="whiteSpace=wrap;strokeWidth=2;" vertex="1" parent="1">
          <mxGeometry x="659" y="386" width="162" height="49" as="geometry" />
        </mxCell>
        <mxCell id="CugEwf6VZo9OiKDZDvfF-17" value="ResultList.js" style="whiteSpace=wrap;strokeWidth=2;" vertex="1" parent="1">
          <mxGeometry x="871" y="386" width="147" height="49" as="geometry" />
        </mxCell>
        <mxCell id="CugEwf6VZo9OiKDZDvfF-18" value="DestinationInfo.js" style="whiteSpace=wrap;strokeWidth=2;" vertex="1" parent="1">
          <mxGeometry x="1068" y="386" width="187" height="49" as="geometry" />
        </mxCell>
        <mxCell id="CugEwf6VZo9OiKDZDvfF-19" value="MapView.js" style="whiteSpace=wrap;strokeWidth=2;" vertex="1" parent="1">
          <mxGeometry x="1305" y="386" width="140" height="49" as="geometry" />
        </mxCell>
        <mxCell id="CugEwf6VZo9OiKDZDvfF-20" value="RouteInstructions.js" style="whiteSpace=wrap;strokeWidth=2;" vertex="1" parent="1">
          <mxGeometry x="1495" y="386" width="203" height="49" as="geometry" />
        </mxCell>
        <mxCell id="CugEwf6VZo9OiKDZDvfF-21" value="CRUDDestinos.js" style="whiteSpace=wrap;strokeWidth=2;" vertex="1" parent="1">
          <mxGeometry x="1748" y="386" width="177" height="49" as="geometry" />
        </mxCell>
        <mxCell id="CugEwf6VZo9OiKDZDvfF-22" value="FooterLinks.js" style="whiteSpace=wrap;strokeWidth=2;" vertex="1" parent="1">
          <mxGeometry x="2368" y="287" width="161" height="49" as="geometry" />
        </mxCell>
        <mxCell id="CugEwf6VZo9OiKDZDvfF-23" value="" style="curved=1;startArrow=none;endArrow=block;exitX=0;exitY=0.53;entryX=0.5;entryY=-0.01;rounded=0;" edge="1" parent="1" source="CugEwf6VZo9OiKDZDvfF-2" target="CugEwf6VZo9OiKDZDvfF-3">
          <mxGeometry relative="1" as="geometry">
            <Array as="points">
              <mxPoint x="255" y="164" />
            </Array>
          </mxGeometry>
        </mxCell>
        <mxCell id="CugEwf6VZo9OiKDZDvfF-24" value="" style="curved=1;startArrow=none;endArrow=block;exitX=0.5;exitY=0.99;entryX=0.5;entryY=-0.01;rounded=0;" edge="1" parent="1" source="CugEwf6VZo9OiKDZDvfF-2" target="CugEwf6VZo9OiKDZDvfF-4">
          <mxGeometry relative="1" as="geometry">
            <Array as="points" />
          </mxGeometry>
        </mxCell>
        <mxCell id="CugEwf6VZo9OiKDZDvfF-25" value="" style="curved=1;startArrow=none;endArrow=block;exitX=1;exitY=0.56;entryX=0.5;entryY=-0.01;rounded=0;" edge="1" parent="1" source="CugEwf6VZo9OiKDZDvfF-2" target="CugEwf6VZo9OiKDZDvfF-5">
          <mxGeometry relative="1" as="geometry">
            <Array as="points">
              <mxPoint x="2449" y="164" />
            </Array>
          </mxGeometry>
        </mxCell>
        <mxCell id="CugEwf6VZo9OiKDZDvfF-26" value="" style="curved=1;startArrow=none;endArrow=block;exitX=0;exitY=0.84;entryX=0.5;entryY=0;rounded=0;" edge="1" parent="1" source="CugEwf6VZo9OiKDZDvfF-3" target="CugEwf6VZo9OiKDZDvfF-6">
          <mxGeometry relative="1" as="geometry">
            <Array as="points">
              <mxPoint x="76" y="262" />
            </Array>
          </mxGeometry>
        </mxCell>
        <mxCell id="CugEwf6VZo9OiKDZDvfF-27" value="" style="curved=1;startArrow=none;endArrow=block;exitX=0.5;exitY=0.98;entryX=0.5;entryY=0;rounded=0;" edge="1" parent="1" source="CugEwf6VZo9OiKDZDvfF-3" target="CugEwf6VZo9OiKDZDvfF-7">
          <mxGeometry relative="1" as="geometry">
            <Array as="points" />
          </mxGeometry>
        </mxCell>
        <mxCell id="CugEwf6VZo9OiKDZDvfF-28" value="" style="curved=1;startArrow=none;endArrow=block;exitX=1;exitY=0.81;entryX=0.5;entryY=0;rounded=0;" edge="1" parent="1" source="CugEwf6VZo9OiKDZDvfF-3" target="CugEwf6VZo9OiKDZDvfF-8">
          <mxGeometry relative="1" as="geometry">
            <Array as="points">
              <mxPoint x="450" y="262" />
            </Array>
          </mxGeometry>
        </mxCell>
        <mxCell id="CugEwf6VZo9OiKDZDvfF-29" value="" style="curved=1;startArrow=none;endArrow=block;exitX=0;exitY=0.54;entryX=0.5;entryY=0;rounded=0;" edge="1" parent="1" source="CugEwf6VZo9OiKDZDvfF-4" target="CugEwf6VZo9OiKDZDvfF-9">
          <mxGeometry relative="1" as="geometry">
            <Array as="points">
              <mxPoint x="648" y="262" />
            </Array>
          </mxGeometry>
        </mxCell>
        <mxCell id="CugEwf6VZo9OiKDZDvfF-30" value="" style="curved=1;startArrow=none;endArrow=block;exitX=0;exitY=0.59;entryX=0.5;entryY=0;rounded=0;" edge="1" parent="1" source="CugEwf6VZo9OiKDZDvfF-4" target="CugEwf6VZo9OiKDZDvfF-10">
          <mxGeometry relative="1" as="geometry">
            <Array as="points">
              <mxPoint x="1053" y="262" />
            </Array>
          </mxGeometry>
        </mxCell>
        <mxCell id="CugEwf6VZo9OiKDZDvfF-31" value="" style="curved=1;startArrow=none;endArrow=block;exitX=0;exitY=0.95;entryX=0.5;entryY=0;rounded=0;" edge="1" parent="1" source="CugEwf6VZo9OiKDZDvfF-4" target="CugEwf6VZo9OiKDZDvfF-11">
          <mxGeometry relative="1" as="geometry">
            <Array as="points">
              <mxPoint x="1486" y="262" />
            </Array>
          </mxGeometry>
        </mxCell>
        <mxCell id="CugEwf6VZo9OiKDZDvfF-32" value="" style="curved=1;startArrow=none;endArrow=block;exitX=1;exitY=0.73;entryX=0.5;entryY=0;rounded=0;" edge="1" parent="1" source="CugEwf6VZo9OiKDZDvfF-4" target="CugEwf6VZo9OiKDZDvfF-12">
          <mxGeometry relative="1" as="geometry">
            <Array as="points">
              <mxPoint x="1836" y="262" />
            </Array>
          </mxGeometry>
        </mxCell>
        <mxCell id="CugEwf6VZo9OiKDZDvfF-33" value="" style="curved=1;startArrow=none;endArrow=block;exitX=1;exitY=0.61;entryX=0.5;entryY=0;rounded=0;" edge="1" parent="1" source="CugEwf6VZo9OiKDZDvfF-4" target="CugEwf6VZo9OiKDZDvfF-13">
          <mxGeometry relative="1" as="geometry">
            <Array as="points">
              <mxPoint x="2046" y="262" />
            </Array>
          </mxGeometry>
        </mxCell>
        <mxCell id="CugEwf6VZo9OiKDZDvfF-34" value="" style="curved=1;startArrow=none;endArrow=block;exitX=1;exitY=0.57;entryX=0.5;entryY=0;rounded=0;" edge="1" parent="1" source="CugEwf6VZo9OiKDZDvfF-4" target="CugEwf6VZo9OiKDZDvfF-14">
          <mxGeometry relative="1" as="geometry">
            <Array as="points">
              <mxPoint x="2246" y="262" />
            </Array>
          </mxGeometry>
        </mxCell>
        <mxCell id="CugEwf6VZo9OiKDZDvfF-35" value="" style="curved=1;startArrow=none;endArrow=block;exitX=0.2;exitY=0.99;entryX=0.5;entryY=-0.01;rounded=0;" edge="1" parent="1" source="CugEwf6VZo9OiKDZDvfF-9" target="CugEwf6VZo9OiKDZDvfF-15">
          <mxGeometry relative="1" as="geometry">
            <Array as="points">
              <mxPoint x="555" y="361" />
            </Array>
          </mxGeometry>
        </mxCell>
        <mxCell id="CugEwf6VZo9OiKDZDvfF-36" value="" style="curved=1;startArrow=none;endArrow=block;exitX=0.8;exitY=0.99;entryX=0.5;entryY=-0.01;rounded=0;" edge="1" parent="1" source="CugEwf6VZo9OiKDZDvfF-9" target="CugEwf6VZo9OiKDZDvfF-16">
          <mxGeometry relative="1" as="geometry">
            <Array as="points">
              <mxPoint x="740" y="361" />
            </Array>
          </mxGeometry>
        </mxCell>
        <mxCell id="CugEwf6VZo9OiKDZDvfF-37" value="" style="curved=1;startArrow=none;endArrow=block;exitX=0.2;exitY=0.99;entryX=0.5;entryY=-0.01;rounded=0;" edge="1" parent="1" source="CugEwf6VZo9OiKDZDvfF-10" target="CugEwf6VZo9OiKDZDvfF-17">
          <mxGeometry relative="1" as="geometry">
            <Array as="points">
              <mxPoint x="944" y="361" />
            </Array>
          </mxGeometry>
        </mxCell>
        <mxCell id="CugEwf6VZo9OiKDZDvfF-38" value="" style="curved=1;startArrow=none;endArrow=block;exitX=0.8;exitY=0.99;entryX=0.5;entryY=-0.01;rounded=0;" edge="1" parent="1" source="CugEwf6VZo9OiKDZDvfF-10" target="CugEwf6VZo9OiKDZDvfF-18">
          <mxGeometry relative="1" as="geometry">
            <Array as="points">
              <mxPoint x="1162" y="361" />
            </Array>
          </mxGeometry>
        </mxCell>
        <mxCell id="CugEwf6VZo9OiKDZDvfF-39" value="" style="curved=1;startArrow=none;endArrow=block;exitX=0.14;exitY=0.99;entryX=0.5;entryY=-0.01;rounded=0;" edge="1" parent="1" source="CugEwf6VZo9OiKDZDvfF-11" target="CugEwf6VZo9OiKDZDvfF-19">
          <mxGeometry relative="1" as="geometry">
            <Array as="points">
              <mxPoint x="1375" y="361" />
            </Array>
          </mxGeometry>
        </mxCell>
        <mxCell id="CugEwf6VZo9OiKDZDvfF-40" value="" style="curved=1;startArrow=none;endArrow=block;exitX=0.86;exitY=0.99;entryX=0.5;entryY=-0.01;rounded=0;" edge="1" parent="1" source="CugEwf6VZo9OiKDZDvfF-11" target="CugEwf6VZo9OiKDZDvfF-20">
          <mxGeometry relative="1" as="geometry">
            <Array as="points">
              <mxPoint x="1596" y="361" />
            </Array>
          </mxGeometry>
        </mxCell>
        <mxCell id="CugEwf6VZo9OiKDZDvfF-41" value="" style="curved=1;startArrow=none;endArrow=block;exitX=0.5;exitY=0.99;entryX=0.5;entryY=-0.01;rounded=0;" edge="1" parent="1" source="CugEwf6VZo9OiKDZDvfF-12" target="CugEwf6VZo9OiKDZDvfF-21">
          <mxGeometry relative="1" as="geometry">
            <Array as="points" />
          </mxGeometry>
        </mxCell>
        <mxCell id="CugEwf6VZo9OiKDZDvfF-42" value="" style="curved=1;startArrow=none;endArrow=block;exitX=0.5;exitY=0.98;entryX=0.5;entryY=0;rounded=0;" edge="1" parent="1" source="CugEwf6VZo9OiKDZDvfF-5" target="CugEwf6VZo9OiKDZDvfF-22">
          <mxGeometry relative="1" as="geometry">
            <Array as="points" />
          </mxGeometry>
        </mxCell>
      </root>
    </mxGraphModel>
  </diagram>
</mxfile>
